<svg xmlns="http://www.w3.org/2000/svg" viewBox="0 0 2244.09 748.03" aria-labelledby="title">
  <title id="title">Alpha Food Service</title>
  <g fill="#F55116">
    <polygon points="2003.22,596.87 2003.22,747.35 2116.08,747.35 2116.08,722.2 2032.02,722.2 2032.02,684.36 2105.11,684.36 2105.11,659.21 2032.02,659.21 2032.02,622.02 2113.5,622.02 2113.5,596.87"/>
    <path d="M1938.72 640.29l16.77-21.07c-14.61-15.05-36.55-24.29-58.04-24.29-44.93 0-79.54 33.31-79.54 76.96 0 43.64 34.18 77.61 78.47 77.61 21.71 0 43.85-10.32 59.33-26.01l-16.98-18.92c-11.18 10.96-26.44 17.85-40.85 17.85-28.38 0-50.52-22.57-50.52-50.95 0-28.59 22.14-50.73 50.52-50.73 14.83 0 30.1 7.31 40.85 19.56z"/>
    <polygon points="1732.56,596.87 1732.56,747.35 1761.36,747.35 1761.36,596.87"/>
    <path d="M1383.64 622.02h33.97c21.5 0 33.54 9.03 33.54 27.52 0 18.92-12.04 28.17-33.54 28.17h-33.97v-55.68zm98.25 125.33l-33.11-49.87c19.35-8.17 29.88-25.15 29.88-48.8 0-33.11-22.14-51.81-61.06-51.81h-62.77v150.48h28.8v-44.29h33.97c1.93 0 3.66 0 5.37-.21l26.02 44.5h32.89z"/>
    <polygon points="1170.82,596.87 1170.82,747.35 1283.68,747.35 1283.68,722.2 1199.62,722.2 1199.62,684.36 1272.71,684.36 1272.71,659.21 1199.62,659.21 1199.62,622.02 1281.1,622.02 1281.1,596.87"/>
    <path d="M1082.87 635.56l11.61-25.15c-14.4-9.46-34.39-15.91-54.38-15.91-33.76 0-56.32 16.98-56.32 43.43 0 54.18 80.82 36.11 80.82 67.93 0 10.75-9.67 17.2-25.79 17.2-16.13 0-36.55-8.38-52.02-22.57l-12.04 24.51c16.12 14.4 39.56 24.07 63.63 24.07 33.11 0 57.61-16.55 57.61-44.71.22-54.61-80.61-37.84-80.61-69.01 0-9.46 8.81-14.62 22.36-14.62 11.61 0 29.02 4.94 45.14 14.83z"/>
    <path d="M754.11 721.98h-34.4v-99.75h33.32c28.16 0 49.44 20.64 49.44 50.09 0 29.23-20.64 49.66-48.37 49.66zm-.65-125.11H690.9v150.48h61.48c46.44 0 79.54-31.39 79.54-75.24 0-44.07-32.89-75.24-78.46-75.24z"/>
    <path d="M559.78 620.73c27.52 0 50.3 22.35 50.3 51.16 0 28.81-22.78 51.59-50.3 51.59-27.73 0-51.17-22.79-51.17-51.59 0-28.81 23.22-51.16 51.17-51.16zm-.43-25.8c-45.36 0-80.18 33.11-80.18 76.96 0 43.64 34.82 77.61 80.18 77.61 45.36 0 80.18-33.97 80.18-77.61 0-43.65-34.82-76.96-80.18-76.96z"/>
    <path d="M354.25 620.73c27.52 0 50.3 22.35 50.3 51.16 0 28.81-22.78 51.59-50.3 51.59-27.73 0-51.17-22.79-51.17-51.59 0-28.81 23.22-51.16 51.17-51.16zm-.43-25.8c-45.36 0-80.19 33.11-80.19 76.96 0 43.64 34.83 77.61 80.19 77.61 45.36 0 80.19-33.97 80.19-77.61 0-43.65-34.83-76.96-80.19-76.96z"/>
    <polygon points="128.74,596.87 128.74,747.35 157.54,747.35 157.54,687.8 225.69,687.8 225.69,662.65 157.54,662.65 157.54,622.02 232.35,622.02 232.56,596.87"/>
    <polygon points="1527.26,596.87 1586.8,747.35 1616.69,747.35 1676.87,596.87 1647.21,596.87 1602.5,715.32 1558.21,596.87"/>
    <path d="M514.15 9.06h116.41v355.66H790.5v89.96H514.14V9.06zm800.24 445.62h116.41V269.12h167.02v185.56h116.41V9.06h-116.41v170.1H1430.8V9.06h-116.41v445.62zm780.51.02h144.44c-51.73-148.54-106.09-302.33-157.82-450.87h-160l-55.23 156.3c33 6.13 68.51 15.84 103.2 28.9l31.11-90.83 71.36 209.65c-41.62-37.51-111.4-70.8-184.94-88.93-12.45-3.07-25.77-6.22-38.51-7.73l-36.9 105.95c114.58 24.69 210.32 63.37 283.3 137.56zM996.46 99.04v150.17h64.16c38.97 0 65.28-41.48 64.7-75.08-.57-33.61-28.03-75.09-64.7-75.09h-64.16zM146.61 454.7H2.17C53.9 306.16 108.26 152.37 159.99 3.83h160l55.23 156.3c-33 6.13-68.5 15.84-103.2 28.9L240.91 98.2l-71.36 209.65c41.63-37.51 111.41-70.8 184.95-88.93 12.45-3.07 25.76-6.22 38.5-7.73l36.9 105.95C315.32 341.83 219.58 380.51 146.6 454.7zm733.44-445.64 195.17.02c98.68 0 156.83 82.53 157.24 165.05.4 82.51-56.89 165.05-157.24 165.05h-78.76v115.51H880.05V9.07z"/>
  </g>
</svg>
